<svg width="1280" height="606" viewBox="0 0 1280 606" fill="none" xmlns="http://www.w3.org/2000/svg">
<g opacity="0.3">
<rect x="478.617" y="130.984" width="285.573" height="34.8216" stroke="#3B379A"/>
<rect x="478.617" y="453.379" width="285.573" height="34.8216" stroke="#3B379A"/>
<rect x="800.012" y="166.805" width="285.573" height="34.8216" transform="rotate(90 800.012 166.805)" stroke="#3B379A"/>
<rect x="477.617" y="166.805" width="285.573" height="34.8216" transform="rotate(90 477.617 166.805)" stroke="#3B379A"/>
<rect x="356.824" y="45.0117" width="213.93" height="213.93" fill="white" stroke="#925192"/>
<rect x="679.219" y="360.242" width="213.93" height="213.93" fill="white" stroke="#4B9EFF"/>
<rect x="786.184" y="0.707107" width="213.93" height="213.93" transform="rotate(45 786.184 0.707107)" fill="white" stroke="#3B379A"/>
<circle cx="463.794" cy="467.207" r="121.294" fill="white" stroke="#3B379A"/>
</g>
<path d="M1399.83 10L1215.69 133.079V480.098L1399.83 603.176V10Z" stroke="#FF29D2" stroke-width="0.5" stroke-miterlimit="10"/>
<path d="M1399.83 504.431L1215.69 422.261" stroke="#FF29D2" stroke-width="0.5" stroke-miterlimit="10"/>
<path d="M1399.83 405.334L1215.69 364.425" stroke="#FF29D2" stroke-width="0.5" stroke-miterlimit="10"/>
<path d="M1399.83 306.588H1215.69" stroke="#FF29D2" stroke-width="0.5" stroke-miterlimit="10"/>
<path d="M1399.83 207.843L1215.69 248.752" stroke="#FF29D2" stroke-width="0.5" stroke-miterlimit="10"/>
<path d="M1399.83 109.097L1215.69 190.914" stroke="#FF29D2" stroke-width="0.5" stroke-miterlimit="10"/>
<path d="M1234.74 120.029V493.145" stroke="#FF29D2" stroke-width="0.5" stroke-miterlimit="10"/>
<path d="M1257.32 105.219V507.958" stroke="#FF29D2" stroke-width="0.5" stroke-miterlimit="10"/>
<path d="M1200.52 10L1119.74 133.079V480.098L1200.52 603.176V10Z" stroke="#FF29D2" stroke-width="0.5" stroke-miterlimit="10"/>
<path d="M1200.52 504.431L1119.74 422.261" stroke="#FF29D2" stroke-width="0.5" stroke-miterlimit="10"/>
<path d="M1200.52 405.334L1119.74 364.425" stroke="#FF29D2" stroke-width="0.5" stroke-miterlimit="10"/>
<path d="M1200.52 306.588H1119.74" stroke="#FF29D2" stroke-width="0.5" stroke-miterlimit="10"/>
<path d="M1200.52 207.843L1119.74 248.752" stroke="#FF29D2" stroke-width="0.5" stroke-miterlimit="10"/>
<path d="M1200.52 109.097L1119.74 190.914" stroke="#FF29D2" stroke-width="0.5" stroke-miterlimit="10"/>
<path d="M1128.21 120.029V493.145" stroke="#FF29D2" stroke-width="0.5" stroke-miterlimit="10"/>
<path d="M1138.08 105.219V507.958" stroke="#FF29D2" stroke-width="0.5" stroke-miterlimit="10"/>
<path d="M1149.73 87.5859V525.591" stroke="#FF29D2" stroke-width="0.5" stroke-miterlimit="10"/>
<path d="M1163.48 66.7783V546.398" stroke="#FF29D2" stroke-width="0.5" stroke-miterlimit="10"/>
<path d="M1180.06 41.3867V571.789" stroke="#FF29D2" stroke-width="0.5" stroke-miterlimit="10"/>
<path d="M1093.28 10L1064 133.079V480.098L1093.28 603.176V10Z" stroke="#FF29D2" stroke-width="0.5" stroke-miterlimit="10"/>
<path d="M1093.28 504.431L1064 422.261" stroke="#FF29D2" stroke-width="0.5" stroke-miterlimit="10"/>
<path d="M1093.28 405.334L1064 364.425" stroke="#FF29D2" stroke-width="0.5" stroke-miterlimit="10"/>
<path d="M1093.28 306.588H1064" stroke="#FF29D2" stroke-width="0.5" stroke-miterlimit="10"/>
<path d="M1093.28 207.843L1064 248.752" stroke="#FF29D2" stroke-width="0.5" stroke-miterlimit="10"/>
<path d="M1093.28 109.097L1064 190.914" stroke="#FF29D2" stroke-width="0.5" stroke-miterlimit="10"/>
<path d="M1066.82 120.029V493.145" stroke="#FF29D2" stroke-width="0.5" stroke-miterlimit="10"/>
<path d="M1070.35 105.219V507.958" stroke="#FF29D2" stroke-width="0.5" stroke-miterlimit="10"/>
<path d="M1074.59 87.5859V525.591" stroke="#FF29D2" stroke-width="0.5" stroke-miterlimit="10"/>
<path d="M1079.52 66.7783V546.398" stroke="#FF29D2" stroke-width="0.5" stroke-miterlimit="10"/>
<path d="M1085.88 41.3867V571.789" stroke="#FF29D2" stroke-width="0.5" stroke-miterlimit="10"/>
<path d="M-120 10L64.1422 133.079V480.098L-120 603.176V10Z" stroke="#FF29D2" stroke-width="0.5" stroke-miterlimit="10"/>
<path d="M-120 504.431L64.1422 422.261" stroke="#FF29D2" stroke-width="0.5" stroke-miterlimit="10"/>
<path d="M-120 405.334L64.1422 364.425" stroke="#FF29D2" stroke-width="0.5" stroke-miterlimit="10"/>
<path d="M-120 306.588H64.1422" stroke="#FF29D2" stroke-width="0.5" stroke-miterlimit="10"/>
<path d="M-120 207.843L64.1422 248.752" stroke="#FF29D2" stroke-width="0.5" stroke-miterlimit="10"/>
<path d="M-120 109.097L64.1422 190.914" stroke="#FF29D2" stroke-width="0.5" stroke-miterlimit="10"/>
<path d="M44.7422 120.029V493.145" stroke="#FF29D2" stroke-width="0.5" stroke-miterlimit="10"/>
<path d="M22.5156 105.219V507.958" stroke="#FF29D2" stroke-width="0.5" stroke-miterlimit="10"/>
<path d="M79.3086 10L159.739 133.079V480.098L79.3086 603.176V10Z" stroke="#FF29D2" stroke-width="0.5" stroke-miterlimit="10"/>
<path d="M79.3086 504.431L159.739 422.261" stroke="#FF29D2" stroke-width="0.5" stroke-miterlimit="10"/>
<path d="M79.3086 405.334L159.739 364.425" stroke="#FF29D2" stroke-width="0.5" stroke-miterlimit="10"/>
<path d="M79.3086 306.588H159.739" stroke="#FF29D2" stroke-width="0.5" stroke-miterlimit="10"/>
<path d="M79.3086 207.843L159.739 248.752" stroke="#FF29D2" stroke-width="0.5" stroke-miterlimit="10"/>
<path d="M79.3086 109.097L159.739 190.914" stroke="#FF29D2" stroke-width="0.5" stroke-miterlimit="10"/>
<path d="M151.277 120.029V493.145" stroke="#FF29D2" stroke-width="0.5" stroke-miterlimit="10"/>
<path d="M141.398 105.219V507.958" stroke="#FF29D2" stroke-width="0.5" stroke-miterlimit="10"/>
<path d="M130.105 87.5859V525.591" stroke="#FF29D2" stroke-width="0.5" stroke-miterlimit="10"/>
<path d="M116.355 66.7783V546.398" stroke="#FF29D2" stroke-width="0.5" stroke-miterlimit="10"/>
<path d="M99.7695 41.3867V571.789" stroke="#FF29D2" stroke-width="0.5" stroke-miterlimit="10"/>
<path d="M186.551 10L215.83 133.079V480.098L186.551 603.176V10Z" stroke="#FF29D2" stroke-width="0.5" stroke-miterlimit="10"/>
<path d="M186.551 504.431L215.83 422.261" stroke="#FF29D2" stroke-width="0.5" stroke-miterlimit="10"/>
<path d="M186.551 405.334L215.83 364.425" stroke="#FF29D2" stroke-width="0.5" stroke-miterlimit="10"/>
<path d="M186.551 306.588H215.83" stroke="#FF29D2" stroke-width="0.5" stroke-miterlimit="10"/>
<path d="M186.551 207.843L215.83 248.752" stroke="#FF29D2" stroke-width="0.5" stroke-miterlimit="10"/>
<path d="M186.551 109.097L215.83 190.914" stroke="#FF29D2" stroke-width="0.5" stroke-miterlimit="10"/>
<path d="M212.656 120.03V493.145" stroke="#FF29D2" stroke-width="0.5" stroke-miterlimit="10"/>
<path d="M209.129 105.219V507.958" stroke="#FF29D2" stroke-width="0.5" stroke-miterlimit="10"/>
<path d="M204.895 87.5859V525.591" stroke="#FF29D2" stroke-width="0.5" stroke-miterlimit="10"/>
<path d="M199.957 66.7783V546.398" stroke="#FF29D2" stroke-width="0.5" stroke-miterlimit="10"/>
<path d="M193.961 41.3867V571.789" stroke="#FF29D2" stroke-width="0.5" stroke-miterlimit="10"/>
</svg>
